<?xml version="1.0" encoding="utf-8"?>
<!-- Generator: Adobe Illustrator 23.0.4, SVG Export Plug-In . SVG Version: 6.00 Build 0)  -->
<svg version="1.1" id="Capa_1" xmlns="http://www.w3.org/2000/svg" xmlns:xlink="http://www.w3.org/1999/xlink" x="0px" y="0px"
	 viewBox="0 0 327.3 307.1" style="enable-background:new 0 0 327.3 307.1;" xml:space="preserve">
<style type="text/css">
	.st0{fill:#FFFFFF;}
</style>
<g>
	<path class="st0" d="M313.6,188.7c7.8-11.1,12-24.3,12-37.9c0-19.5-8.8-38.2-23.8-50.7c0.5-3.9,0.8-7.5,0.8-11.1
		c0-49.1-40-89.1-89.1-89.1c-29.4,0-57,14.8-73.5,38.9c-8.3-4.3-17.5-6.5-26.9-6.5c-30.5,0-55.6,23.3-58.5,53.3
		C23.1,91.1,0,118.2,0,150.8c0,31.2,22,57.7,51.7,64.3c-4.2,8.5-6.6,18-6.6,28.1c0,35.2,28.6,63.8,63.8,63.8h143.5
		c2.3,0,4.6-0.1,6.8-0.4c38.8-3.7,68-35.9,68-74.9C327.3,215.7,322.2,200.9,313.6,188.7z M59.1,203.4c-26.2-3.4-46.2-25.9-46.2-52.7
		c0-27.8,20.9-50.5,48.5-52.9l5.9-0.8v-5.9c0-25.3,20.6-45.9,45.9-45.9c9.1,0,17.9,2.7,25.4,7.7l5.7,3.8l3.4-5.9
		c13.6-23.4,38.9-38,65.9-38c42,0,76.2,34.2,76.2,76.2c0,4-0.4,8.1-1.2,12.7l-0.7,3.9l3.2,2.3c13.8,10.2,21.7,25.8,21.7,42.8
		c0,9.8-2.7,19.3-7.7,27.6c-6.8-6.8-14.8-12.2-23.5-15.9c-0.1-0.1-0.2-0.1-0.4-0.2c-1.9-0.8-3.9-1.5-5.9-2.1
		c-0.4-0.1-0.7-0.3-1.1-0.4c-1.8-0.6-3.6-1-5.5-1.4c-0.6-0.1-1.2-0.3-1.8-0.5c-1.8-0.4-3.6-0.6-5.4-0.8c-0.7-0.1-1.4-0.2-2.1-0.3
		c-2.5-0.3-5-0.4-7.6-0.4h-1.2c-14.3-20.4-37.4-32.5-62.4-32.5c-34.2,0-64.2,23-73.4,55.5h-6c-2.4,0-4.7,0.1-7,0.4
		c-0.5,0.1-1,0.2-1.6,0.2c-1.8,0.3-3.6,0.5-5.3,0.9c-0.5,0.1-1.1,0.3-1.6,0.4c-1.7,0.4-3.4,0.9-5.1,1.5c-0.5,0.2-1,0.4-1.6,0.6
		c-1.6,0.6-3.3,1.3-4.8,2c-0.5,0.2-1,0.5-1.5,0.7c-1.6,0.8-3.1,1.6-4.6,2.5c-0.5,0.3-0.9,0.6-1.4,0.8c-1.6,1-3.1,2.1-4.6,3.2
		c-0.3,0.3-0.7,0.5-1,0.7c-3.6,2.9-6.8,6.1-9.7,9.7C59.2,203.3,59.1,203.4,59.1,203.4z M257.9,293.9c-1.8,0.2-3.6,0.3-5.4,0.3H109
		c-28.1,0-51-22.9-51-51c0-10.5,3.2-20.2,8.6-28.3l0.3-0.5c0.2-0.3,0.5-0.6,0.7-0.9c1-1.4,2-2.7,3.2-4c0.3-0.3,0.6-0.6,0.8-0.9
		c1.1-1.2,2.2-2.3,3.4-3.4c0.2-0.2,0.5-0.4,0.7-0.7c3-2.6,6.2-4.8,9.7-6.6c0.1-0.1,0.2-0.1,0.4-0.2c1.6-0.8,3.2-1.5,4.8-2.2
		c0.4-0.1,0.7-0.3,1.1-0.4c1.4-0.5,2.9-1,4.4-1.4c0.4-0.1,0.9-0.2,1.4-0.4c1.4-0.3,2.9-0.6,4.4-0.8c0.5-0.1,0.9-0.2,1.4-0.2
		c1.9-0.2,3.8-0.4,5.8-0.4h16.3l1.1-5.1c6.1-29.2,32.2-50.4,62.1-50.4c21.8,0,41.8,11,53.5,29.6l1.9,3h8.1c2.3,0,4.5,0.1,6.7,0.4
		c0.8,0.1,1.5,0.2,2.2,0.3c1.4,0.2,2.9,0.4,4.3,0.7c0.9,0.2,1.8,0.5,2.7,0.7c1.2,0.3,2.4,0.6,3.6,1c1,0.3,1.9,0.7,2.9,1.1
		c1.1,0.4,2.1,0.8,3.1,1.3c1,0.4,1.9,0.9,2.9,1.4c1,0.5,1.9,1,2.9,1.6c0.9,0.5,1.8,1.1,2.7,1.6c1,0.7,2,1.4,2.9,2.1
		c0.8,0.6,1.5,1.1,2.3,1.7c1.3,1.1,2.6,2.2,3.9,3.4c0.3,0.3,0.6,0.6,0.9,0.8c1.6,1.6,3.1,3.2,4.5,5c8.7,10.7,14,24.4,14,39.3
		C314.4,264.1,290.1,290.8,257.9,293.9z"/>
</g>
</svg>
