<?xml version="1.0" encoding="utf-8"?>
<!-- Generator: Adobe Illustrator 23.0.4, SVG Export Plug-In . SVG Version: 6.00 Build 0)  -->
<svg version="1.1" id="Capa_1" xmlns="http://www.w3.org/2000/svg" xmlns:xlink="http://www.w3.org/1999/xlink" x="0px" y="0px"
	 viewBox="0 0 217.4 217.4" style="enable-background:new 0 0 217.4 217.4;" xml:space="preserve">
<style type="text/css">
	.st0{fill:#FFFFFF;}
</style>
<g>
	<path class="st0" d="M144.8,47.1c0-4.1-3.4-7.5-7.5-7.5H7.5C3.4,39.6,0,43,0,47.1s3.4,7.5,7.5,7.5h129.8
		C141.4,54.6,144.8,51.2,144.8,47.1z"/>
	<path class="st0" d="M209.9,70.4H58.6c-4.1,0-7.5,3.4-7.5,7.5s3.4,7.5,7.5,7.5h151.3c4.1,0,7.5-3.4,7.5-7.5S214.1,70.4,209.9,70.4z
		"/>
	<path class="st0" d="M174.5,116.2c4.1,0,7.5-3.4,7.5-7.5s-3.4-7.5-7.5-7.5H22.4c-4.1,0-7.5,3.4-7.5,7.5s3.4,7.5,7.5,7.5H174.5z"/>
	<path class="st0" d="M199.4,132H47.6c-4.1,0-7.5,3.4-7.5,7.5s3.4,7.5,7.5,7.5h151.8c4.1,0,7.5-3.4,7.5-7.5S203.6,132,199.4,132z"/>
	<path class="st0" d="M125.8,162.8H25.1c-4.1,0-7.5,3.4-7.5,7.5s3.4,7.5,7.5,7.5h100.7c4.1,0,7.5-3.4,7.5-7.5
		C133.3,166.2,129.9,162.8,125.8,162.8z"/>
</g>
</svg>
