<?xml version="1.0" encoding="utf-8"?>
<!-- Generator: Adobe Illustrator 23.0.4, SVG Export Plug-In . SVG Version: 6.00 Build 0)  -->
<svg version="1.1" id="Layer_1" xmlns="http://www.w3.org/2000/svg" xmlns:xlink="http://www.w3.org/1999/xlink" x="0px" y="0px"
	 viewBox="0 0 512 480" style="enable-background:new 0 0 512 480;" xml:space="preserve">
<style type="text/css">
	.st0{fill:#FFFFFF;}
</style>
<path class="st0" d="M230,470c0,5.5-4.5,10-10,10s-10-4.5-10-10s4.5-10,10-10S230,464.5,230,470z"/>
<path class="st0" d="M70,480h105c5.5,0,10-4.5,10-10s-4.5-10-10-10H70c-27.6,0-50-22.4-50-50s22.4-50,50-50c5.5,0,10-4.5,10-10
	c0-27.6,22.4-50,50-50c2.6,0,5.2,0.3,8.3,0.9c4.4,0.7,8.8-1.6,10.7-5.7c15.2-32.8,48.2-55.2,86-55.2c47.5,0,87.8,35.7,93.8,83.1
	c0.4,2.8,1.9,5.3,4.2,6.9c2.3,1.6,5.2,2.2,7.9,1.6c5-1.1,9.7-1.7,14.2-1.7c35.5,0,65,28.6,65,65c0,35.8-29.2,65-65,65h-90
	c-5.5,0-10,4.5-10,10s4.5,10,10,10h90c46.9,0,85-38.1,85-85c0-24.4-10.2-46.9-27.6-62.7c42.1-13.4,77.2-43.7,98.5-85.7
	c1.9-3.7,1.3-8.1-1.5-11.2c-2.8-3.1-7.1-4.1-11-2.6c-11.5,4.4-22.1,7.3-36.4,7.3c-60.7,0-110-49.3-110-110
	c0-44.4,26.4-84.2,67.4-101.4c3.8-1.6,6.2-5.4,6.1-9.5s-2.8-7.8-6.6-9.1C400.3,3.3,381.2,0,362,0c-93.7,0-170,76.3-170,170
	c0,18.9,3.1,37.4,9.1,55.1c-28.4,8.8-52.6,28.6-66.9,55.1c-1.4-0.1-2.8-0.2-4.2-0.2c-35.4,0-64.8,26.4-69.4,60.6
	C26.4,345.2,0,374.6,0,410C0,448.6,31.4,480,70,480z M362,20c9,0,17.9,0.8,26.8,2.5C353.7,46.4,332,86.3,332,130
	c0,71.7,58.3,130,130,130c6.4,0,12.4-0.5,18.4-1.5c-22.2,31.1-54.1,52-90.6,58.9c-10.9-4.9-22.6-7.4-34.8-7.4
	c-2.7,0-5.4,0.1-8.2,0.4C335.4,258.2,289.1,220,235,220c-4.7,0-9.5,0.3-14.2,0.9c-5.9-16.3-8.8-33.3-8.8-50.9
	C212,87.3,279.3,20,362,20z"/>
</svg>
