<?xml version="1.0" encoding="utf-8"?>
<!-- Generator: Adobe Illustrator 23.0.4, SVG Export Plug-In . SVG Version: 6.00 Build 0)  -->
<svg version="1.1" id="Capa_1" xmlns="http://www.w3.org/2000/svg" xmlns:xlink="http://www.w3.org/1999/xlink" x="0px" y="0px"
	 viewBox="0 0 33.1 33.1" style="enable-background:new 0 0 33.1 33.1;" xml:space="preserve">
<style type="text/css">
	.st0{fill:#FFFFFF;}
</style>
<g>
	<g>
		<path class="st0" d="M25.6,22.3c-0.3,0-0.5-0.2-0.5-0.5s0.2-0.5,0.5-0.5c3.6,0,6.4-2.9,6.4-6.4c0-3.6-2.9-6.4-6.4-6.4
			c-0.3,0-0.6,0-1,0.1c-0.2,0-0.4-0.1-0.5-0.3c-1.5-3.1-4.7-5.1-8.1-5.1c-4.2,0-7.8,2.8-8.8,6.9c-0.1,0.2-0.3,0.4-0.5,0.4l-0.1,0
			c0,0,0,0,0,0c-3.1,0-5.5,2.4-5.5,5.4c0,3,2.4,5.4,5.4,5.4c0.3,0,0.5,0.2,0.5,0.5s-0.2,0.5-0.5,0.5c-3.6,0-6.4-2.9-6.4-6.4
			c0-3.5,2.8-6.4,6.3-6.4c1.2-4.3,5.2-7.3,9.7-7.3c3.7,0,7.1,2,8.9,5.3c0.3,0,0.5,0,0.8,0c4.1,0,7.4,3.3,7.4,7.4
			C33.1,19,29.7,22.3,25.6,22.3z"/>
		<path class="st0" d="M25.6,22.3c-0.3,0-0.5-0.2-0.5-0.5s0.2-0.5,0.5-0.5c3.6,0,6.4-2.9,6.4-6.4c0-3.6-2.9-6.4-6.4-6.4
			c-1.9,0-3.6,0.8-4.9,2.2c-0.2,0.2-0.5,0.2-0.7,0c-0.2-0.2-0.2-0.5,0-0.7c1.4-1.6,3.5-2.6,5.6-2.6c4.1,0,7.4,3.3,7.4,7.4
			C33.1,19,29.7,22.3,25.6,22.3z"/>
	</g>
	<g>
		<path class="st0" d="M8.3,30.9c-0.1,0-0.1,0-0.2,0c-0.3-0.1-0.4-0.4-0.3-0.6l0.9-2.9c0.1-0.3,0.4-0.4,0.6-0.3
			c0.3,0.1,0.4,0.4,0.3,0.6l-0.9,2.9C8.7,30.8,8.5,30.9,8.3,30.9z M10.1,25.2c-0.1,0-0.1,0-0.2,0c-0.3-0.1-0.4-0.4-0.3-0.6l0.9-2.9
			c0.1-0.3,0.4-0.4,0.6-0.3c0.3,0.1,0.4,0.4,0.3,0.6l-0.9,2.9C10.5,25,10.3,25.2,10.1,25.2z"/>
	</g>
	<g>
		<path class="st0" d="M18.3,30.9c-0.1,0-0.1,0-0.2,0c-0.3-0.1-0.4-0.4-0.3-0.6l0.9-2.9c0.1-0.3,0.4-0.4,0.6-0.3
			c0.3,0.1,0.4,0.4,0.3,0.6l-0.9,2.9C18.7,30.8,18.5,30.9,18.3,30.9z M20.1,25.2c-0.1,0-0.1,0-0.2,0c-0.3-0.1-0.4-0.4-0.3-0.6
			l0.9-2.9c0.1-0.3,0.4-0.4,0.6-0.3c0.3,0.1,0.4,0.4,0.3,0.6l-0.9,2.9C20.5,25,20.3,25.2,20.1,25.2z"/>
	</g>
	<g>
		<path class="st0" d="M13.3,30.9c-0.1,0-0.1,0-0.2,0c-0.3-0.1-0.4-0.4-0.3-0.6l0.9-2.9c0.1-0.3,0.4-0.4,0.6-0.3
			c0.3,0.1,0.4,0.4,0.3,0.6l-0.9,2.9C13.7,30.8,13.5,30.9,13.3,30.9z M15.1,25.2c-0.1,0-0.1,0-0.2,0c-0.3-0.1-0.4-0.4-0.3-0.6
			l0.9-2.9c0.1-0.3,0.4-0.4,0.6-0.3c0.3,0.1,0.4,0.4,0.3,0.6l-0.9,2.9C15.5,25,15.3,25.2,15.1,25.2z"/>
	</g>
</g>
</svg>
