<?xml version="1.0" encoding="utf-8"?>
<!-- Generator: Adobe Illustrator 23.0.4, SVG Export Plug-In . SVG Version: 6.00 Build 0)  -->
<svg version="1.1" id="Capa_1" xmlns="http://www.w3.org/2000/svg" xmlns:xlink="http://www.w3.org/1999/xlink" x="0px" y="0px"
	 viewBox="0 0 512 404" style="enable-background:new 0 0 512 404;" xml:space="preserve">
<style type="text/css">
	.st0{fill:#FFFFFF;}
</style>
<path id="XMLID_207_" class="st0" d="M15.8,204.5h34.3c5.5,0,10-4.5,10-10s-4.5-10-10-10H15.8c-5.5,0-10,4.5-10,10
	S10.2,204.5,15.8,204.5z"/>
<path id="XMLID_208_" class="st0" d="M85,100.3c2,2,4.5,2.9,7.1,2.9s5.1-1,7.1-2.9c3.9-3.9,3.9-10.2,0-14.1L70,57
	c-3.9-3.9-10.2-3.9-14.1,0s-3.9,10.2,0,14.1L85,100.3z"/>
<path id="XMLID_209_" class="st0" d="M193.4,61.2c5.5,0,10-4.5,10-10V10c0-5.5-4.5-10-10-10s-10,4.5-10,10v41.2
	C183.4,56.7,187.9,61.2,193.4,61.2z"/>
<path id="XMLID_210_" class="st0" d="M294.7,103.2c2.6,0,5.1-1,7.1-2.9l29.1-29.1c3.9-3.9,3.9-10.2,0-14.1s-10.2-3.9-14.1,0
	l-29.1,29.1c-3.9,3.9-3.9,10.2,0,14.1C289.6,102.2,292.2,103.2,294.7,103.2L294.7,103.2z"/>
<path id="XMLID_213_" class="st0" d="M427.1,295.2c-1.9,0-3.7,0.1-5.6,0.2c-7.4-26-22.6-49.5-43.7-66.8c-21-17.3-47-27.7-74-29.9
	c0.1-1.4,0.1-2.8,0.1-4.1c0-60.9-49.6-110.5-110.5-110.5c-60.9,0-110.5,49.6-110.5,110.5c0,30.7,12.4,59.2,34,79.8
	c-19.7,6.5-36.7,19.9-47.8,38.1c-0.5,0-1,0-1.5,0C30.4,312.4,0,342.8,0,380.1c0,5.5,0.7,10.9,2,16.3c1.1,4.5,5.1,7.6,9.7,7.6h199.4
	c5.5,0,10-4.5,10-10s-4.5-10-10-10h-191c-0.1-1.3-0.2-2.6-0.2-3.9c0-26.3,21.4-47.7,47.7-47.7c1.9,0,3.8,0.1,5.9,0.4
	c4.2,0.5,8.2-1.6,10.1-5.4c11.1-21.7,32.4-35.7,56.4-37.4c0.1,0,0.3,0,0.4,0c0.5,0,1-0.1,1.6-0.1c1,0,2-0.1,3.1-0.1
	c10,0,19.6,2.1,28.7,6.2c2.5,1.1,5.4,1.2,7.9,0.2c2.6-1,4.6-3.1,5.6-5.6c17.1-44,58.6-72.4,105.8-72.4c53.5,0,100.2,37.9,111,90.2
	c1.1,5.3,6.2,8.8,11.5,7.8c3.8-0.7,7.7-1,11.4-1c35.8,0,64.9,29.1,64.9,64.9c0,1.3,0,2.6-0.1,3.9H301.1c-5.5,0-10,4.5-10,10
	s4.5,10,10,10h199.6c4.8,0,8.9-3.4,9.8-8.2c1-5.2,1.5-10.5,1.5-15.7C512,333.3,473.9,295.2,427.1,295.2L427.1,295.2z M172.6,274.1
	c-8.8-2.9-18.1-4.3-27.5-4.3c-0.6,0-1.3,0-1.9,0c-25.3-16.9-40.3-44.8-40.3-75.3c0-49.9,40.6-90.5,90.5-90.5s90.5,40.6,90.5,90.5
	c0,1.3,0,2.7-0.1,4c-24.1,1.7-47,9.7-66.9,23.6C197.7,235.4,182.6,253.3,172.6,274.1L172.6,274.1z"/>
<path id="XMLID_214_" class="st0" d="M256.1,384c-2.6,0-5.2,1.1-7.1,2.9c-1.9,1.9-2.9,4.4-2.9,7.1s1.1,5.2,2.9,7.1
	c1.9,1.9,4.4,2.9,7.1,2.9c2.6,0,5.2-1.1,7.1-2.9s2.9-4.4,2.9-7.1s-1.1-5.2-2.9-7.1S258.8,384,256.1,384z"/>
</svg>
