<?xml version="1.0" encoding="utf-8"?>
<!-- Generator: Adobe Illustrator 23.0.4, SVG Export Plug-In . SVG Version: 6.00 Build 0)  -->
<svg version="1.1" id="Layer_1" xmlns="http://www.w3.org/2000/svg" xmlns:xlink="http://www.w3.org/1999/xlink" x="0px" y="0px"
	 viewBox="0 0 120.8 120.8" style="enable-background:new 0 0 120.8 120.8;" xml:space="preserve">
<style type="text/css">
	.st0{fill:#FFFFFF;}
</style>
<g>
	<g>
		<path class="st0" d="M60.4,88.5c15.5,0,28-12.6,28-28s-12.6-28-28-28s-28,12.6-28,28S44.9,88.5,60.4,88.5z M60.4,40.6
			c11,0,19.9,8.9,19.9,19.9s-8.9,19.9-19.9,19.9s-19.9-8.9-19.9-19.9S49.4,40.6,60.4,40.6z"/>
		<path class="st0" d="M64.5,19.5V6.6c0-2.3-1.8-4.1-4.1-4.1s-4.1,1.8-4.1,4.1v12.9c0,2.3,1.8,4.1,4.1,4.1
			C62.7,23.6,64.5,21.8,64.5,19.5z"/>
		<path class="st0" d="M56.3,101.5v12.9c0,2.3,1.8,4.1,4.1,4.1c2.3,0,4.1-1.8,4.1-4.1v-12.9c0-2.3-1.8-4.1-4.1-4.1
			S56.3,99.2,56.3,101.5z"/>
		<path class="st0" d="M92.3,34.4l9.1-9.1c1.6-1.6,1.6-4.2,0-5.8c-1.6-1.6-4.2-1.6-5.8,0l-9.1,9.1c-1.6,1.6-1.6,4.2,0,5.8
			c0.8,0.8,1.8,1.2,2.9,1.2S91.5,35.2,92.3,34.4z"/>
		<path class="st0" d="M19.4,101.5c0.8,0.8,1.8,1.2,2.9,1.2c1,0,2.1-0.4,2.9-1.2l9.1-9.1c1.6-1.6,1.6-4.2,0-5.8
			c-1.6-1.6-4.2-1.6-5.8,0l-9.1,9.1C17.8,97.3,17.8,99.9,19.4,101.5z"/>
		<path class="st0" d="M118.4,60.5c0-2.3-1.8-4.1-4.1-4.1h-12.9c-2.3,0-4.1,1.8-4.1,4.1c0,2.3,1.8,4.1,4.1,4.1h12.9
			C116.5,64.6,118.4,62.8,118.4,60.5z"/>
		<path class="st0" d="M6.5,64.6h12.9c2.3,0,4.1-1.8,4.1-4.1c0-2.3-1.8-4.1-4.1-4.1H6.5c-2.3,0-4.1,1.8-4.1,4.1
			C2.4,62.8,4.3,64.6,6.5,64.6z"/>
		<path class="st0" d="M98.5,102.7c1,0,2.1-0.4,2.9-1.2c1.6-1.6,1.6-4.2,0-5.8l-9.1-9.1c-1.6-1.6-4.2-1.6-5.8,0
			c-1.6,1.6-1.6,4.2,0,5.8l9.1,9.1C96.4,102.3,97.5,102.7,98.5,102.7z"/>
		<path class="st0" d="M34.3,34.4c1.6-1.6,1.6-4.2,0-5.8l-9.1-9.1c-1.6-1.6-4.2-1.6-5.8,0c-1.6,1.6-1.6,4.2,0,5.8l9.1,9.1
			c0.8,0.8,1.8,1.2,2.9,1.2C32.5,35.6,33.5,35.2,34.3,34.4z"/>
	</g>
</g>
</svg>
