<?xml version="1.0" encoding="utf-8"?>
<!-- Generator: Adobe Illustrator 23.0.4, SVG Export Plug-In . SVG Version: 6.00 Build 0)  -->
<svg version="1.1" id="Outline" xmlns="http://www.w3.org/2000/svg" xmlns:xlink="http://www.w3.org/1999/xlink" x="0px" y="0px"
	 viewBox="0 0 480 412.2" style="enable-background:new 0 0 480 412.2;" xml:space="preserve">
<style type="text/css">
	.st0{fill:#FFFFFF;}
</style>
<path class="st0" d="M432,223.6H48c-26.5,0-48-21.5-48-48s21.5-48,48-48h16.5c4.1-32,31.3-56,63.5-56h32.4c4.4-44,43.6-76,87.6-71.6
	c40.9,4.1,72,38.5,72,79.6h24c27.8,0,51.4,20.5,55.4,48H432c26.5,0,48,21.5,48,48S458.5,223.6,432,223.6z M48,143.6
	c-17.7,0-32,14.3-32,32s14.3,32,32,32h384c17.7,0,32-14.3,32-32s-14.3-32-32-32h-48v-8c0-22.1-17.9-40-40-40h-40v-16
	c0-35.3-28.7-64-64-64s-64,28.7-64,64v8h-48c-26.5,0-48,21.5-48,48v8H48z"/>
<path class="st0" d="M74.9,410.4c-5.5,0-10-4.5-10-10c0-0.4,0-0.8,0.1-1.2l5.9-47.5H19.8c-5.5,0-10-4.5-10-10c0-2,0.6-4,1.8-5.7
	l53.2-76c1.9-2.7,4.9-4.2,8.2-4.2h43.2c5.5,0,10,4.5,10,10c0,2-0.6,3.9-1.7,5.6l-21.6,32.4H140c5.5,0,10,4.5,10,10
	c0,2.2-0.7,4.3-2,6l-65.1,86.8C81,408.9,78.1,410.4,74.9,410.4z M31.4,335.6h46.4c5.5,0,10,4.5,10,10c0,0.4,0,0.8-0.1,1.2l-4,31.9
	l44.3-59.1H91.7c-5.5,0-10-4.5-10-10c0-2,0.6-3.9,1.7-5.6l21.6-32.4H76.2L31.4,335.6z"/>
<path class="st0" d="M193.4,347.3l16-24l13.3,8.9l-16,24L193.4,347.3z"/>
<path class="st0" d="M265.4,347.3l16-24l13.3,8.9l-16,24L265.4,347.3z"/>
<path class="st0" d="M337.4,347.3l16-24l13.3,8.9l-16,24L337.4,347.3z"/>
<path class="st0" d="M409.5,347.3l16-24l13.3,8.9l-16,24L409.5,347.3z"/>
<path class="st0" d="M145.4,403.3l16-24l13.3,8.9l-16,24L145.4,403.3z"/>
<path class="st0" d="M217.4,403.3l16-24l13.3,8.9l-16,24L217.4,403.3z"/>
<path class="st0" d="M289.4,403.3l16-24l13.3,8.9l-16,24L289.4,403.3z"/>
<path class="st0" d="M361.4,403.3l16-24l13.3,8.9l-16,24L361.4,403.3z"/>
<path class="st0" d="M241.4,291.3l16-24l13.3,8.9l-16,24L241.4,291.3z"/>
<path class="st0" d="M313.4,291.3l16-24l13.3,8.9l-16,24L313.4,291.3z"/>
<path class="st0" d="M169.4,291.3l16-24l13.3,8.9l-16,24L169.4,291.3z"/>
<path class="st0" d="M385.4,291.3l16-24l13.3,8.9l-16,24L385.4,291.3z"/>
</svg>
